<svg width="64" height="20" viewBox="0 0 64 20" fill="none" xmlns="http://www.w3.org/2000/svg">
<path d="M0 8.01766L13.4819 2.92871V6.44944L4.05818 9.83515L13.4819 13.252V16.7624L0 11.663V8.01766Z" fill="white"/>
<path d="M64 8.00692V11.6627L50.5181 16.7516V13.2413L59.9418 9.83479L50.5181 6.43869V2.91797L64 8.00692Z" fill="white"/>
<path d="M16.7348 19.6809C17.4048 19.6809 17.948 19.1416 17.948 18.4762C17.948 17.8109 17.4048 17.2715 16.7348 17.2715C16.0647 17.2715 15.5215 17.8109 15.5215 18.4762C15.5215 19.1416 16.0647 19.6809 16.7348 19.6809Z" fill="white"/>
<path d="M25.5518 2.57617H19.2867V19.6813H25.5518V2.57617Z" fill="white"/>
<path d="M45.895 4.63198C44.9746 3.178 43.6881 2.03558 42.046 1.2255C40.4039 0.405039 38.5108 0 36.3562 0H27.3508V19.6807H36.3562C38.5108 19.6807 40.4039 19.2757 42.046 18.4552C43.6881 17.6452 44.9746 16.4924 45.895 15.028C46.8259 13.5532 47.2861 11.8292 47.2861 9.83518C47.2861 7.83075 46.8259 6.09636 45.895 4.63198ZM41.8369 13.0755C41.3034 13.9894 40.5399 14.6956 39.5672 15.1942C38.5945 15.6927 37.4544 15.9419 36.1366 15.9419H31.9424V3.73882H36.1366C37.4544 3.73882 38.5945 3.98808 39.5672 4.48659C40.5399 4.97471 41.3034 5.68093 41.8369 6.59487C42.3703 7.49841 42.6422 8.57852 42.6422 9.83518C42.6422 11.0711 42.3703 12.1512 41.8369 13.0755Z" fill="white"/>
<path d="M25.5519 0H19.2868V1.86941H25.5519V0Z" fill="white"/>
</svg>
